<svg xmlns="http://www.w3.org/2000/svg" width="200" height="200" viewBox="0 0 337 288"><defs><style>.a{fill:rgba(0,203,105,0.5);stroke:rgba(0,203,105,0.5);stroke-width:50px;}.b,.d{fill:none;}.c{fill:#fff;}.d{stroke:#fff;stroke-width:10px;}.e{fill:#00cb69;}.f{stroke:none;}</style></defs><g transform="translate(-802 -263.252)"><g class="a" transform="translate(887 336.252)"><circle class="f" cx="82.5" cy="82.5" r="82.5"/><circle class="b" cx="82.5" cy="82.5" r="107.5"/></g><g transform="translate(936.353 374.993)"><path class="b" d="M0,0H86.289V84.825H0Z" transform="translate(-9.711)"/><path class="c" d="M36.793,70.756,14.559,48.522a6.289,6.289,0,0,0-8.894,8.894L32.283,84.033a6.326,6.326,0,0,0,8.957,0l67.337-67.274a6.289,6.289,0,1,0-8.894-8.894Z" transform="translate(-23.688 -3.409)"/></g><g class="d" transform="translate(886 333.252)"><circle class="f" cx="84" cy="84" r="84"/><circle class="b" cx="84" cy="84" r="79"/></g><g transform="translate(31.862 31.49)"><circle class="e" cx="8.5" cy="8.5" r="8.5" transform="translate(1090.138 435.762)"/><circle class="e" cx="6.5" cy="6.5" r="6.5" transform="translate(770.138 500.762)"/><ellipse class="e" cx="3.5" cy="4" rx="3.5" ry="4" transform="translate(797.138 231.762)"/></g></g></svg>