<svg xmlns="http://www.w3.org/2000/svg" xmlns:xlink="http://www.w3.org/1999/xlink" width="50" height="50" viewBox="0 0 80 80"><defs><style>.a{fill:#0092e0;opacity:0.1;}.b{fill:#0084ff;}.c{fill:url(#a);}</style><linearGradient id="a" x1="0.81" y1="0.973" x2="0.107" gradientUnits="objectBoundingBox"><stop offset="0" stop-color="#0092e0"/><stop offset="1" stop-color="#1ec3ff"/></linearGradient></defs><circle class="a" cx="40" cy="40" r="40"/><path class="b" d="M13.5,38h0A88.155,88.155,0,0,1,6.75,29.39a54.2,54.2,0,0,1-4.641-8.023A20.147,20.147,0,0,1,0,13.3,13.117,13.117,0,0,1,3.951,3.893a13.658,13.658,0,0,1,19.1,0A13.117,13.117,0,0,1,27,13.3a20.147,20.147,0,0,1-2.109,8.067,54.2,54.2,0,0,1-4.641,8.023A88.156,88.156,0,0,1,13.5,38Zm0-29.45a4.751,4.751,0,1,0,4.821,4.75A4.792,4.792,0,0,0,13.5,8.55Z" transform="translate(27 20)"/><path class="c" d="M13.5,38h0A88.155,88.155,0,0,1,6.75,29.39a54.2,54.2,0,0,1-4.641-8.023A20.147,20.147,0,0,1,0,13.3,13.117,13.117,0,0,1,3.951,3.893a13.658,13.658,0,0,1,19.1,0A13.117,13.117,0,0,1,27,13.3a20.147,20.147,0,0,1-2.109,8.067,54.2,54.2,0,0,1-4.641,8.023A88.156,88.156,0,0,1,13.5,38Zm0-29.45a4.751,4.751,0,1,0,4.821,4.75A4.792,4.792,0,0,0,13.5,8.55Z" transform="translate(27 20)"/></svg>