<svg xmlns="http://www.w3.org/2000/svg" width="170" height="50" viewBox="0 0 162 70"><defs><style>.a{fill:#0092e0;}.b{fill:#fff;}</style></defs><g transform="translate(-633 -1291)"><path class="a" d="M0,0H162a0,0,0,0,1,0,0V60a10,10,0,0,1-10,10H0a0,0,0,0,1,0,0V0A0,0,0,0,1,0,0Z" transform="translate(633 1291)"/><path class="b" d="M23.019,9.431V28.822a6.745,6.745,0,0,1-13.49,0V7.745a4.216,4.216,0,1,1,8.431,0V25.45a1.686,1.686,0,1,1-3.372,0V9.431H12.059V25.45a4.216,4.216,0,0,0,8.431,0V7.745A6.745,6.745,0,1,0,7,7.745V28.822a9.274,9.274,0,0,0,18.548,0V9.431Z" transform="translate(697.433 1305.402)"/></g></svg>