<svg xmlns="http://www.w3.org/2000/svg" width="23.5" height="29.524" viewBox="0 0 23.5 29.524"><defs><style>.a{fill:#2c3e50;stroke:#2c3e50;stroke-linecap:round;stroke-linejoin:round;stroke-miterlimit:10;}.a,.b{stroke-width:2px;}.b{fill:red;stroke:#fff;}.c{stroke:none;}.d{fill:none;}</style></defs><g transform="translate(-4.526 1.412)"><path class="a" d="M25.663,40c0,2.431-1.724,4.42-3.832,4.42S18,42.431,18,40" transform="translate(-6.473 -17.308)"/><path class="a" d="M22.584,15.069V9.623A7.468,7.468,0,0,0,15.329,2,7.468,7.468,0,0,0,8.073,9.623v5.445A15.6,15.6,0,0,1,6,22.692H24.657A15.6,15.6,0,0,1,22.584,15.069Z" transform="translate(-0.474 0)"/><g class="b" transform="translate(16.026 0.588)"><circle class="c" cx="5" cy="5" r="5"/><circle class="d" cx="5" cy="5" r="6"/></g></g></svg>