<svg xmlns="http://www.w3.org/2000/svg" xmlns:xlink="http://www.w3.org/1999/xlink" width="44" height="42" viewBox="0 0 66.587 38.75"><defs><style>.a{stroke:rgba(0,0,0,0);stroke-miterlimit:10;fill:url(#a);}</style><linearGradient id="a" x1="0.81" y1="0.973" x2="0.107" gradientUnits="objectBoundingBox"><stop offset="0" stop-color="#4a86ff"/><stop offset="1" stop-color="#1ec3ff"/></linearGradient></defs><path class="a" d="M-499.592-3107.25h-61.231a2.277,2.277,0,0,1-1.537-.552,2.258,2.258,0,0,1-.641-1.325v-34a2.257,2.257,0,0,1,.641-1.324,2.283,2.283,0,0,1,1.537-.552h61.23a2.29,2.29,0,0,1,1.537.552,2.27,2.27,0,0,1,.642,1.324v34a2.263,2.263,0,0,1-.641,1.324A2.283,2.283,0,0,1-499.592-3107.25Zm-50.342-34a6.9,6.9,0,0,1-2.562,5.409,9.141,9.141,0,0,1-6.149,2.208v15.011a9.15,9.15,0,0,1,6.149,2.208,6.909,6.909,0,0,1,2.562,5.409h39.453a6.908,6.908,0,0,1,2.562-5.409,9.147,9.147,0,0,1,6.149-2.207v-15.012a9.136,9.136,0,0,1-6.149-2.208,6.9,6.9,0,0,1-2.562-5.409Zm19.728,27.374a10.9,10.9,0,0,1-4.739-1.1,10.511,10.511,0,0,1-3.459-2.98,13.323,13.323,0,0,1-2.049-3.973,16.816,16.816,0,0,1-.64-4.195,16.842,16.842,0,0,1,.64-4.2,13.305,13.305,0,0,1,2.049-3.973,10.549,10.549,0,0,1,3.459-2.98,10.92,10.92,0,0,1,4.739-1.1,10.927,10.927,0,0,1,4.739,1.1,10.6,10.6,0,0,1,3.458,2.98,13.33,13.33,0,0,1,2.05,3.973,16.894,16.894,0,0,1,.641,4.2,16.9,16.9,0,0,1-.64,4.195,13.349,13.349,0,0,1-2.05,3.974,10.528,10.528,0,0,1-3.458,2.98A10.9,10.9,0,0,1-530.206-3113.873Zm-1.914-9.575a.432.432,0,0,0-.3.123l-.941.92a.421.421,0,0,0-.128.329.455.455,0,0,0,.177.333,3.83,3.83,0,0,0,2.339.811v1.3a.433.433,0,0,0,.433.432h.866a.433.433,0,0,0,.432-.432v-1.3a3.053,3.053,0,0,0,2.859-1.966,2.943,2.943,0,0,0-.159-2.339,2.978,2.978,0,0,0-1.8-1.493l-2.92-.855a.8.8,0,0,1-.573-.765.8.8,0,0,1,.8-.8h1.793a1.656,1.656,0,0,1,.925.284.4.4,0,0,0,.227.069.431.431,0,0,0,.3-.123l.941-.92a.421.421,0,0,0,.128-.33.454.454,0,0,0-.177-.332,3.841,3.841,0,0,0-2.34-.812v-1.3a.433.433,0,0,0-.432-.433h-.866a.433.433,0,0,0-.433.433v1.3h-.068a2.968,2.968,0,0,0-2.187.967,2.931,2.931,0,0,0-.761,2.268,3.1,3.1,0,0,0,2.266,2.613l2.772.812a.8.8,0,0,1,.573.765.8.8,0,0,1-.8.8h-1.794a1.659,1.659,0,0,1-.924-.283A.407.407,0,0,0-532.12-3123.448Z" transform="translate(563.5 3145.5)"/></svg>