<svg xmlns="http://www.w3.org/2000/svg" width="20" height="20" viewBox="0 0 38 38"><defs><style>.a,.d{fill:none;}.a{stroke:#fff;stroke-width:3px;opacity:0;}.b{fill:#fff;}.c{stroke:none;}</style></defs><g transform="translate(-38 -194)"><g class="a" transform="translate(38 194)"><rect class="c" width="38" height="38"/><rect class="d" x="1.5" y="1.5" width="35" height="35"/></g><path class="b" d="M15.984,5.813a4.16,4.16,0,0,0-4.172,4.171,4.162,4.162,0,0,0,4.172,4.172,4.162,4.162,0,0,0,4.172-4.172,4.16,4.16,0,0,0-4.171-4.172Zm.047,18A22.6,22.6,0,0,0,7.875,25.36q-4.031,1.547-4.031,2.671v2.156H28.219V28.031q0-1.125-4.031-2.672A22.588,22.588,0,0,0,16.031,23.813ZM15.984,1.969a7.724,7.724,0,0,1,5.672,2.344A7.731,7.731,0,0,1,24,9.985a7.721,7.721,0,0,1-2.344,5.672A7.728,7.728,0,0,1,15.984,18a7.728,7.728,0,0,1-5.672-2.344A7.721,7.721,0,0,1,7.968,9.985a7.73,7.73,0,0,1,2.345-5.672,7.726,7.726,0,0,1,5.672-2.344Zm0,18a28.464,28.464,0,0,1,6.516.844,20.511,20.511,0,0,1,6.516,2.766q2.953,1.922,2.953,4.452v6H0v-6Q0,25.5,2.953,23.578a20.494,20.494,0,0,1,6.516-2.765,28.538,28.538,0,0,1,6.516-.844Z" transform="translate(41 194.859)"/></g></svg>