<svg xmlns="http://www.w3.org/2000/svg" width="24" height="24" viewBox="0 0 38 38"><defs><style>.a,.d{fill:none;}.a{stroke:#fff;stroke-width:3px;opacity:0;}.b{fill:#fff;}.c{stroke:none;}</style></defs><g transform="translate(-38 -194)"><g class="a" transform="translate(38 194)"><rect class="c" width="38" height="38"/><rect class="d" x="1.5" y="1.5" width="35" height="35"/></g><path class="b" d="M17.426,5.861a17.437,17.437,0,0,0-16.337,23.5H5.854a13.069,13.069,0,1,1,23.143,0h4.765a17.437,17.437,0,0,0-16.337-23.5Zm0,6.843A2.178,2.178,0,1,0,19.6,14.883,2.178,2.178,0,0,0,17.426,12.7Zm-6.533,2.134a2.178,2.178,0,1,0,2.178,2.178A2.178,2.178,0,0,0,10.893,14.838Zm13.065,0a2.178,2.178,0,1,0,2.178,2.178A2.178,2.178,0,0,0,23.958,14.838Zm-6.533,4.275-1.708,8.542v1.708h3.416V27.656Z" transform="translate(39.99 195.783)"/></g></svg>