<svg xmlns="http://www.w3.org/2000/svg" width="15.543" height="13.703" viewBox="0 0 20.543 23.703"><defs><style>.a{fill:#0092e0;}</style></defs><g transform="translate(-3.375 -1.125)"><path class="a" d="M23.72,12.186H16.807a2.37,2.37,0,0,1-2.37-2.37V2.9a.2.2,0,0,0-.2-.2H11.61a3.231,3.231,0,0,0-.321-.485,2.988,2.988,0,0,0-2.383-1.1c-1.86,0-3.16,1.462-3.16,3.556v7.111a1.976,1.976,0,1,0,3.951,0V4.285a.79.79,0,0,0-1.58,0v7.506a.383.383,0,0,1-.4.4.387.387,0,0,1-.4-.4V4.681c0-.955.415-1.976,1.58-1.976,1.466,0,1.58,1.489,1.58,1.945V11.5a3.29,3.29,0,0,1-.761,2.2,2.588,2.588,0,0,1-2,.86,2.589,2.589,0,0,1-2-.86,3.29,3.29,0,0,1-.761-2.2V7.446a.79.79,0,0,0-1.58,0V11.5A4.361,4.361,0,0,0,7.326,16.12v5.548a3.16,3.16,0,0,0,3.16,3.16H20.757a3.16,3.16,0,0,0,3.16-3.16V12.384A.2.2,0,0,0,23.72,12.186Z"/><path class="a" d="M22.165,11.532h6.41a.1.1,0,0,0,.07-.169l-7.1-7.1a.1.1,0,0,0-.169.07v6.41A.79.79,0,0,0,22.165,11.532Z" transform="translate(-5.358 -0.926)"/></g></svg>