<svg xmlns="http://www.w3.org/2000/svg" xmlns:xlink="http://www.w3.org/1999/xlink" width="44.076" height="36.17" viewBox="0 0 53.076 47.17"><defs><style>.a{fill:url(#a);}</style><linearGradient id="a" x1="0.5" x2="0.5" y2="1" gradientUnits="objectBoundingBox"><stop offset="0" stop-color="#4a86ff"/><stop offset="1" stop-color="#1ec3ff"/></linearGradient></defs><path class="a" d="M37.1,7.757l8.312,8.312a.9.9,0,0,1,0,1.272L25.285,37.465l-8.551.949a1.792,1.792,0,0,1-1.981-1.981l.949-8.551L35.826,7.757a.9.9,0,0,1,1.272,0Zm14.928-2.11-4.5-4.5a3.6,3.6,0,0,0-5.086,0L39.18,4.412a.9.9,0,0,0,0,1.272L47.492,14a.9.9,0,0,0,1.272,0l3.262-3.262A3.6,3.6,0,0,0,52.026,5.647ZM35.384,31.992v9.38H5.9V11.885H27.072a1.133,1.133,0,0,0,.783-.323l3.686-3.686a1.106,1.106,0,0,0-.783-1.889H4.423A4.424,4.424,0,0,0,0,10.411V42.847A4.424,4.424,0,0,0,4.423,47.27H36.858a4.424,4.424,0,0,0,4.423-4.423V28.306a1.108,1.108,0,0,0-1.889-.783l-3.686,3.686A1.133,1.133,0,0,0,35.384,31.992Z" transform="translate(0 -0.1)"/></svg>