<svg xmlns="http://www.w3.org/2000/svg" width="50" height="50" viewBox="0 0 74 74"><defs><style>.a{fill:#d7dadb;}.b,.c,.e{fill:#707070;}.b{stroke-linecap:round;stroke-linejoin:round;}.d,.e{stroke:none;}</style></defs><g transform="translate(0 -0.439)"><circle class="a" cx="37" cy="37" r="37" transform="translate(0 0.439)"/><g transform="translate(23 24.439)"><g class="b" transform="translate(-3 -7)"><path class="d" d="M 16.28474235534668 33.91948318481445 C 8.766522407531738 33.91948318481445 2.650002241134644 27.80296516418457 2.650002241134644 20.28474426269531 C 2.650002241134644 12.76652431488037 8.766522407531738 6.650004386901855 16.28474235534668 6.650004386901855 C 19.36283302307129 6.650004386901855 22.27169227600098 7.658294200897217 24.69683265686035 9.565864562988281 L 25.02736282348633 9.825863838195801 L 24.71167182922363 10.10370445251465 L 23.96084213256836 10.76450443267822 L 23.74545288085938 10.95406436920166 L 23.51733207702637 10.78003406524658 C 21.41970252990723 9.179863929748535 18.9187126159668 8.334053993225098 16.28474235534668 8.334053993225098 C 9.695112228393555 8.334053993225098 4.334052562713623 13.69511413574219 4.334052562713623 20.28474426269531 C 4.334052562713623 26.87437438964844 9.695112228393555 32.23543548583984 16.28474235534668 32.23543548583984 C 22.8743724822998 32.23543548583984 28.23543167114258 26.87437438964844 28.23543167114258 20.28474426269531 C 28.23543167114258 18.89256477355957 27.99599266052246 17.52608489990234 27.52375221252441 16.2232551574707 L 27.44929313659668 16.01784515380859 L 27.60114288330078 15.86074447631836 L 28.35394287109375 15.08186435699463 L 28.72835159301758 14.69447422027588 L 28.93013191223145 15.19402408599854 C 29.58661270141602 16.81934356689453 29.91948318481445 18.5321044921875 29.91948318481445 20.28474426269531 C 29.91948318481445 27.80296516418457 23.80296325683594 33.91948318481445 16.28474235534668 33.91948318481445 Z"/><path class="e" d="M 16.28474235534668 7.000003814697266 C 8.959442138671875 7.000003814697266 3.000001907348633 12.95943450927734 3.000001907348633 20.28474426269531 C 3.000001907348633 27.61004447937012 8.959442138671875 33.56948471069336 16.28474235534668 33.56948471069336 C 23.61005210876465 33.56948471069336 29.56948280334473 27.61004447937012 29.56948280334473 20.28474426269531 C 29.56948280334473 18.53214454650879 29.22506332397461 16.85875511169434 28.6056022644043 15.32510375976563 L 27.85280227661133 16.10398483276367 C 28.32613182067871 17.40982437133789 28.5854320526123 18.81751441955566 28.5854320526123 20.28474426269531 C 28.5854320526123 27.06734466552734 23.06734275817871 32.58543395996094 16.28474235534668 32.58543395996094 C 9.502141952514648 32.58543395996094 3.984052658081055 27.06734466552734 3.984052658081055 20.28474426269531 C 3.984052658081055 13.50214385986328 9.502141952514648 7.984054565429688 16.28474235534668 7.984054565429688 C 19.0809326171875 7.984054565429688 21.6611213684082 8.923824310302734 23.72961235046387 10.50176429748535 L 24.48044204711914 9.840963363647461 C 22.2210521697998 8.063762664794922 19.37566375732422 7.000003814697266 16.28474235534668 7.000003814697266 M 16.28474235534668 6.300003051757813 C 19.44210243225098 6.300003051757813 22.42577362060547 7.334194183349609 24.91321182250977 9.290773391723633 C 25.07662200927734 9.419303894042969 25.17444229125977 9.613824844360352 25.18017196655273 9.821643829345703 C 25.1859130859375 10.02946472167969 25.09897232055664 10.22908401489258 24.94291305541992 10.3664436340332 L 24.19208145141602 11.02724456787109 C 24.06032943725586 11.14319610595703 23.89511299133301 11.20176696777344 23.72952651977539 11.20176696777344 C 23.58030891418457 11.20176696777344 23.43079948425293 11.15424156188965 23.3050537109375 11.05831336975098 C 21.26892280578613 9.505064010620117 18.84134292602539 8.684053421020508 16.28474235534668 8.684053421020508 C 9.888101577758789 8.684053421020508 4.684051513671875 13.88810348510742 4.684051513671875 20.28474426269531 C 4.684051513671875 26.6813850402832 9.888101577758789 31.88543319702148 16.28474235534668 31.88543319702148 C 22.68138122558594 31.88543319702148 27.88543319702148 26.6813850402832 27.88543319702148 20.28474426269531 C 27.88543319702148 18.93335342407227 27.65303230285645 17.60700416564941 27.1947021484375 16.3425235748291 C 27.10357284545898 16.09113502502441 27.16363143920898 15.80978393554688 27.34947204589844 15.61750411987305 L 28.10227203369141 14.83862495422363 C 28.23544692993164 14.70083236694336 28.41769790649414 14.62509346008301 28.60557174682617 14.62509155273438 C 28.65004348754883 14.62509155273438 28.69482612609863 14.62933540344238 28.73935317993164 14.63800430297852 C 28.97198295593262 14.68328475952148 29.16590309143066 14.84319496154785 29.25465202331543 15.06294441223145 C 29.92804336547852 16.7301139831543 30.26948165893555 18.48697471618652 30.26948165893555 20.28474426269531 C 30.26948165893555 27.9959545135498 23.99595260620117 34.26948547363281 16.28474235534668 34.26948547363281 C 8.573532104492188 34.26948547363281 2.300003051757813 27.9959545135498 2.300003051757813 20.28474426269531 C 2.300003051757813 12.57353401184082 8.573532104492188 6.300003051757813 16.28474235534668 6.300003051757813 Z"/></g><path class="c" d="M36.681,9,24.38,19.825l-5.412-3.936L17,17.856l7.38,7.38L38.649,10.476Z" transform="translate(-10.112 -8.016)"/></g></g></svg>