<svg xmlns="http://www.w3.org/2000/svg" width="50.31" height="70.838" viewBox="0 0 102.31 101.838"><g transform="translate(-2 -2)"><path d="M54.014,25.206H9.2A3.2,3.2,0,0,1,6,22V9.2A3.2,3.2,0,0,1,9.2,6H54.014a3.2,3.2,0,0,1,3.2,3.2V22A3.2,3.2,0,0,1,54.014,25.206ZM12.4,18.8H50.813V12.21H12.4Z" transform="translate(8.804 8.804)"/><path d="M54.014,14.08H9.2a3.2,3.2,0,0,0-3.2,3.2V29.829a3.2,3.2,0,0,0,3.2,3.2H45.564L57.215,21.186V17.281A3.2,3.2,0,0,0,54.014,14.08Zm-3.2,12.548H12.4v-6.4H50.813Z" transform="translate(8.804 26.588)"/><path d="M31,96.46v-.192l1.024-4.449H8.4V8.4H72.421v32.81l6.4-6.05V5.2a3.2,3.2,0,0,0-3.2-3.2H5.2A3.2,3.2,0,0,0,2,5.2V94.828a3.2,3.2,0,0,0,3.2,3.2H30.809A11.011,11.011,0,0,1,31,96.46Z" transform="translate(0 0)"/><path d="M23.717,19.17,21.22,21.7a3.2,3.2,0,0,0,2.5-2.529Z" transform="translate(42.302 37.79)"/><path d="M6,37.813a3.2,3.2,0,0,0,3.2,3.2H24.694l.96-4.161.416-1.761v-.16H12.4V28.4H32.7L39.1,22H9.2A3.2,3.2,0,0,0,6,25.2Z" transform="translate(8.804 44.019)"/><path d="M78.659,25.129,67.872,14.341a5.154,5.154,0,0,0-7.3,0L16.689,58.482l-3.617,15.4A5.154,5.154,0,0,0,17.1,79.961a4.961,4.961,0,0,0,.992,0,3.681,3.681,0,0,0,1.184,0l15.525-3.425L78.659,32.587a5.122,5.122,0,0,0,0-7.266ZM31.541,70.71,19.825,73.3l2.849-11.619L55.58,28.426l9.027,9.027ZM68.224,33.835,59.2,24.808l5.09-5.026,9.091,9.091Z" transform="translate(24.139 23.829)"/></g></svg>