<svg xmlns="http://www.w3.org/2000/svg" width="46" height="30.668" viewBox="0 0 46 30.668"><defs><style>.a{fill:#173049;}</style></defs><path class="a" d="M35.419,14.136l.359,6.31A3,3,0,0,1,34.141,23a13.85,13.85,0,0,1-4.692,1.867A28.565,28.565,0,0,1,23,25.557a28.565,28.565,0,0,1-6.449-.689A13.85,13.85,0,0,1,11.859,23a3,3,0,0,1-1.637-2.556l.359-6.31,11.46,3.614a3.367,3.367,0,0,0,1.917,0ZM46,7.667a.608.608,0,0,1-.44.618L23.2,15.313a.982.982,0,0,1-.4,0L9.783,11.2a4.871,4.871,0,0,0-1.417,2.226,12.728,12.728,0,0,0-.679,3.564,2.349,2.349,0,0,1,1.257,2.176A2.413,2.413,0,0,1,7.787,21.3l1.158,8.645a.651.651,0,0,1-.639.719H4.472a.651.651,0,0,1-.639-.719L4.991,21.3a2.545,2.545,0,0,1,.141-4.352,12.384,12.384,0,0,1,1.956-6.588L.44,8.285a.655.655,0,0,1,0-1.237L22.8.02a.982.982,0,0,1,.4,0L45.56,7.048a.608.608,0,0,1,.44.618Z"/></svg>