<svg xmlns="http://www.w3.org/2000/svg" width="20" height="20" viewBox="0 0 39 38"><defs><style>.a{fill:#fff;}.b,.d{fill:none;}.b{stroke:#fff;stroke-width:3px;opacity:0;}.c{stroke:none;}</style></defs><g transform="translate(-37 -412)"><path class="a" d="M36,18a17.508,17.508,0,0,1-1.43,6.984,17.788,17.788,0,0,1-9.586,9.586A17.508,17.508,0,0,1,18,36a17.877,17.877,0,0,1-7.664-1.7,17.6,17.6,0,0,1-6.188-4.793A.834.834,0,0,1,4,28.981a.692.692,0,0,1,.2-.48l3.211-3.234a.842.842,0,0,1,.586-.211.73.73,0,0,1,.539.281,11.923,11.923,0,0,0,14.12,3.715,11.889,11.889,0,0,0,6.4-6.4A11.74,11.74,0,0,0,30,18a11.613,11.613,0,0,0-.949-4.652,12.176,12.176,0,0,0-2.567-3.832,12.027,12.027,0,0,0-3.832-2.567A11.723,11.723,0,0,0,18,6a11.9,11.9,0,0,0-4.406.832,11.647,11.647,0,0,0-3.75,2.379l3.211,3.234a1.331,1.331,0,0,1,.328,1.617A1.4,1.4,0,0,1,12,15H1.5a1.444,1.444,0,0,1-1.055-.445A1.437,1.437,0,0,1,0,13.5V3A1.4,1.4,0,0,1,.938,1.617a1.333,1.333,0,0,1,1.617.328L5.6,4.968A18.2,18.2,0,0,1,11.332,1.3a17.754,17.754,0,0,1,13.652.129,17.788,17.788,0,0,1,9.586,9.586A17.508,17.508,0,0,1,36,18ZM21,11.25v10.5a.722.722,0,0,1-.75.75h-7.5a.722.722,0,0,1-.75-.75v-1.5a.722.722,0,0,1,.75-.75H18V11.25a.722.722,0,0,1,.75-.75h1.5a.722.722,0,0,1,.75.75Z" transform="translate(37 413)"/><g class="b" transform="translate(38 412)"><rect class="c" width="38" height="38"/><rect class="d" x="1.5" y="1.5" width="35" height="35"/></g></g></svg>