<svg xmlns="http://www.w3.org/2000/svg" width="15.193" height="13.707" viewBox="0 0 23.193 25.707"><defs><style>.a{fill:#173049;}</style></defs><path class="a" d="M25.193,26.426a3.9,3.9,0,0,0-2.178-3.652A24.136,24.136,0,0,0,13.6,21a24.136,24.136,0,0,0-9.419,1.774A3.9,3.9,0,0,0,2,26.426v4.286H25.193Z" transform="translate(-2 -5.005)"/><path class="a" d="M14.548,13.681h0A5.548,5.548,0,0,1,9,8.133V6.548A5.548,5.548,0,0,1,14.548,1h0A5.548,5.548,0,0,1,20.1,6.548V8.133A5.548,5.548,0,0,1,14.548,13.681Z" transform="translate(-2.951 -1)"/></svg>