<svg xmlns="http://www.w3.org/2000/svg" xmlns:xlink="http://www.w3.org/1999/xlink" width="50.006" height="50.006" viewBox="0 0 62.006 62.006"><defs><style>.a{fill:url(#a);}</style><linearGradient id="a" x1="0.5" x2="0.5" y2="1" gradientUnits="objectBoundingBox"><stop offset="0" stop-color="#4a86ff"/><stop offset="1" stop-color="#1ec3ff"/></linearGradient></defs><path class="a" d="M23.567,2a6.74,6.74,0,1,0,0,13.48,6.671,6.671,0,0,0,1.585-.208l1.124,2.39A16.072,16.072,0,0,0,18.813,36.1L14.4,37.463a6.789,6.789,0,1,0,.979,2.522l4.4-1.358a16.214,16.214,0,0,0,10.641,8.7l-.4,3.212a6.779,6.779,0,1,0,2.664.44l.4-3.214c.419.033.839.066,1.266.066a16.119,16.119,0,0,0,11.542-4.865l5.426,4.457a6.654,6.654,0,0,0-.792,3.1,6.74,6.74,0,1,0,6.74-6.74,6.671,6.671,0,0,0-4.241,1.548l-5.413-4.444a16.1,16.1,0,0,0-.921-19.669l4.17-4.17a6.765,6.765,0,1,0-1.906-1.906l-4.17,4.17a16.024,16.024,0,0,0-16.067-2.8l-1.129-2.4A6.717,6.717,0,0,0,23.567,2ZM34.351,22.219c1.248,0,2.271.341,2.612,1.024,2.064.259,2.767,2.049,2.78,3.694a9.693,9.693,0,0,1-.337,3.033,1.387,1.387,0,0,1,.337,1.348C39.516,32.569,38.736,33,38.395,33a5.392,5.392,0,0,1-1.348,3.033v2.359c.728,1.748,4.226,1.736,6.358,3.225a13.419,13.419,0,0,1-18.108,0c2.132-1.489,5.63-1.477,6.358-3.225V36.036A5.392,5.392,0,0,1,30.307,33a1.691,1.691,0,0,1-1.348-1.685A1.387,1.387,0,0,1,29.3,29.97a11.167,11.167,0,0,1-.337-2.864C28.939,24.27,30.632,22.219,34.351,22.219Z" transform="translate(-2 -2)"/></svg>