<svg xmlns="http://www.w3.org/2000/svg" xmlns:xlink="http://www.w3.org/1999/xlink" width="54.993" height="45" viewBox="0 0 54.993 45"><defs><style>.a,.b{fill:url(#a);}.c,.e{fill:#fff;}.d,.e{stroke:none;}</style><linearGradient id="a" x1="0.5" x2="0.5" y2="1" gradientUnits="objectBoundingBox"><stop offset="0" stop-color="#4a86ff"/><stop offset="1" stop-color="#1ec3ff"/></linearGradient></defs><path class="a" d="M61.823,41.164v1.527a.764.764,0,0,1-.764.764H58.768V44.6a1.146,1.146,0,0,1-1.146,1.146H20.2A1.146,1.146,0,0,1,19.055,44.6V43.456H16.764A.764.764,0,0,1,16,42.692V41.164a.764.764,0,0,1,.472-.706l22.148-8.4a.763.763,0,0,1,.584,0l22.148,8.4A.764.764,0,0,1,61.823,41.164ZM59.532,70.186H18.291A2.291,2.291,0,0,0,16,72.477V74a.764.764,0,0,0,.764.764h44.3A.764.764,0,0,0,61.823,74V72.477A2.291,2.291,0,0,0,59.532,70.186ZM23.637,47.274V65.6H20.2a1.146,1.146,0,0,0-1.146,1.146v1.909H58.768V66.749A1.146,1.146,0,0,0,57.623,65.6H54.186V47.274h-6.11V65.6h-6.11V47.274h-6.11V65.6h-6.11V47.274Z" transform="translate(-16 -32)"/><g class="b" transform="translate(29 19)"><path class="d" d="M 21.54574775695801 25.00000190734863 C 20.9782772064209 25.00000190734863 20.44438743591309 24.77863121032715 20.04242706298828 24.37667274475098 L 15.36944770812988 19.70369148254395 C 15.20529842376709 19.5395393371582 15.07139587402344 19.35296440124512 14.97050476074219 19.15067863464355 C 13.38471412658691 20.03625679016113 11.60722732543945 20.49809265136719 9.74904727935791 20.49809265136719 C 6.877307891845703 20.49809265136719 4.17783784866333 19.38015174865723 2.147887706756592 17.35021209716797 C 0.1179376989603043 15.32026195526123 -1.000002264976501 12.6207914352417 -1.000002264976501 9.749052047729492 C -1.000002264976501 6.877311706542969 0.1179376989603043 4.177831649780273 2.147887706756592 2.147891759872437 C 4.17783784866333 0.1179418340325356 6.877307891845703 -0.999998152256012 9.74904727935791 -0.999998152256012 C 12.62078762054443 -0.999998152256012 15.32025814056396 0.1179418340325356 17.3502082824707 2.147891759872437 C 19.38015747070313 4.177831649780273 20.49809837341309 6.877311706542969 20.49809837341309 9.749052047729492 C 20.49809837341309 11.60720825195313 20.0362548828125 13.38470363616943 19.15068054199219 14.97050666809082 C 19.35296630859375 15.07139587402344 19.5395393371582 15.20529651641846 19.70368766784668 15.36944198608398 L 24.37666702270508 20.04242134094238 L 24.3785572052002 20.04432106018066 L 24.38043785095215 20.04622268676758 C 25.2018985748291 20.87652206420898 25.19810676574707 22.22411155700684 24.37198829650879 23.05024147033691 L 23.04713821411133 24.37507057189941 C 22.64728355407715 24.778076171875 22.11419486999512 25.00000190734863 21.54574775695801 25.00000190734863 Z M 9.74904727935791 4.749631881713867 C 6.992367744445801 4.749631881713867 4.749637603759766 6.992362022399902 4.749637603759766 9.749052047729492 C 4.749637603759766 12.5057315826416 6.992367744445801 14.74846172332764 9.74904727935791 14.74846172332764 C 12.50572776794434 14.74846172332764 14.74845790863037 12.5057315826416 14.74845790863037 9.749052047729492 C 14.74845790863037 6.992362022399902 12.50572776794434 4.749631881713867 9.74904727935791 4.749631881713867 Z"/><path class="e" d="M 21.54574584960938 23.99999618530273 C 21.83341217041016 23.99999618530273 22.12049293518066 23.88985252380371 22.33843803405762 23.6695613861084 L 23.66487693786621 22.34313201904297 C 24.1054573059082 21.90255165100098 24.1054573059082 21.19012260437012 23.66955757141113 20.74953269958496 L 18.99657821655273 16.07655143737793 C 18.78566741943359 15.86564159393311 18.49975776672363 15.74846172332764 18.19978713989258 15.74846172332764 L 17.43579864501953 15.74846172332764 C 18.72941780090332 14.09393215179443 19.49809837341309 12.01289176940918 19.49809837341309 9.749052047729492 C 19.49809837341309 4.363631725311279 15.1344575881958 1.830749511100294e-06 9.74904727935791 1.830749511100294e-06 C 4.363637924194336 1.830749511100294e-06 -2.300720325365546e-06 4.363631725311279 -2.300720325365546e-06 9.749052047729492 C -2.300720325365546e-06 15.13446140289307 4.363637924194336 19.49809265136719 9.74904727935791 19.49809265136719 C 12.01288795471191 19.49809265136719 14.09393787384033 18.72942161560059 15.74845790863037 17.435791015625 L 15.74845790863037 18.19978141784668 C 15.74845790863037 18.49975204467773 15.86563777923584 18.7856616973877 16.07655715942383 18.99658203125 L 20.74953842163086 23.6695613861084 C 20.96982765197754 23.88985252380371 21.25807952880859 23.99999618530273 21.54574584960938 23.99999618530273 M 9.74904727935791 3.749631881713867 C 13.06278800964355 3.749631881713867 15.74845790863037 6.43062162399292 15.74845790863037 9.749052047729492 C 15.74845790863037 13.06278228759766 13.06746768951416 15.74846172332764 9.74904727935791 15.74846172332764 C 6.435307502746582 15.74846172332764 3.749637603759766 13.06747150421143 3.749637603759766 9.749052047729492 C 3.749637603759766 6.435311794281006 6.430617809295654 3.749631881713867 9.74904727935791 3.749631881713867 M 21.54574775695801 26.00000190734863 C 20.71116828918457 26.00000190734863 19.92615699768066 25.67461204528809 19.3353271484375 25.08377265930176 L 14.6750431060791 20.42348670959473 C 13.1470775604248 21.1312313079834 11.47992038726807 21.49809265136719 9.74904727935791 21.49809265136719 C 6.6101975440979 21.49809265136719 3.659607648849487 20.27613258361816 1.440777659416199 18.05731201171875 C -0.7780423164367676 15.83849143981934 -2.000002384185791 12.88790225982666 -2.000002384185791 9.749052047729492 C -2.000002384185791 6.610201835632324 -0.7780423164367676 3.659601926803589 1.440777659416199 1.440781831741333 C 3.659597635269165 -0.7780381441116333 6.6101975440979 -1.999998211860657 9.74904727935791 -1.999998211860657 C 12.88789749145508 -1.999998211860657 15.83849811553955 -0.7780381441116333 18.05731773376465 1.440781831741333 C 20.27613830566406 3.659601926803589 21.49809837341309 6.610201835632324 21.49809837341309 9.749052047729492 C 21.49809837341309 11.47990417480469 21.1312313079834 13.14707565307617 20.42349052429199 14.67504501342773 L 25.08376693725586 19.3353214263916 L 25.08755683898926 19.33910179138184 L 25.09131813049316 19.3429012298584 C 26.29851722717285 20.56309127807617 26.29303741455078 22.54340171813965 25.07908821105957 23.7573413848877 L 23.75542831420898 25.08100128173828 C 23.16656684875488 25.6737060546875 22.38212585449219 26.00000190734863 21.54574775695801 26.00000190734863 Z M 9.74904727935791 5.749631881713867 C 7.543767929077148 5.749631881713867 5.749637603759766 7.543761730194092 5.749637603759766 9.749052047729492 C 5.749637603759766 11.95433139801025 7.543767929077148 13.74846172332764 9.74904727935791 13.74846172332764 C 11.95432758331299 13.74846172332764 13.74845790863037 11.95433139801025 13.74845790863037 9.749052047729492 C 13.74845790863037 7.543761730194092 11.95432758331299 5.749631881713867 9.74904727935791 5.749631881713867 Z"/></g><circle class="c" cx="5.75" cy="5.75" r="5.75" transform="translate(33 23)"/></svg>