<svg xmlns="http://www.w3.org/2000/svg" width="50.571" height="45.6" viewBox="0 0 74.571 69.6"><defs><style>.a{fill:red;}</style></defs><path class="a" d="M37.286,0,74.571,14.914v4.971H69.6a2.311,2.311,0,0,1-.8,1.748,2.665,2.665,0,0,1-1.883.737H7.652a2.677,2.677,0,0,1-1.883-.737,2.314,2.314,0,0,1-.8-1.748H0V14.914ZM9.943,24.857h9.943V54.686h4.971V24.857H34.8V54.686h4.971V24.857h9.943V54.686h4.971V24.857h9.943V54.686H66.92a2.677,2.677,0,0,1,1.883.737,2.307,2.307,0,0,1,.8,1.748v2.486H4.971V57.171a2.311,2.311,0,0,1,.8-1.748,2.665,2.665,0,0,1,1.883-.737H9.941V24.857ZM71.891,62.143a2.677,2.677,0,0,1,1.883.737,2.307,2.307,0,0,1,.8,1.748V69.6H0V64.629A2.311,2.311,0,0,1,.8,62.88a2.665,2.665,0,0,1,1.883-.737H71.891Z"/></svg>