<svg xmlns="http://www.w3.org/2000/svg" xmlns:xlink="http://www.w3.org/1999/xlink" width="50.491" height="48.586" viewBox="0 0 53.491 58.586"><defs><style>.a{fill:url(#a);}</style><linearGradient id="a" x1="0.5" x2="0.5" y2="1" gradientUnits="objectBoundingBox"><stop offset="0" stop-color="#4a86ff"/><stop offset="1" stop-color="#1ec3ff"/></linearGradient></defs><path class="a" d="M23.564,2A11.022,11.022,0,0,0,13.229,8.515C7.993,9.662,4,15.563,4,22.378a18.064,18.064,0,0,0,1.241,6.368h6.634a3.821,3.821,0,1,1,0,2.547H5.652A8.2,8.2,0,0,0,4,36.387c0,3.538,2.214,6.622,5.871,8.308a7.291,7.291,0,0,0,.149,6.659,8.788,8.788,0,0,0,7.037,4.1c1.494,4.024,5.507,5.134,7.781,5.134,2.114,0,4.634-1.033,4.634-5.945V37.661H21.83v5.328a3.821,3.821,0,1,1-2.547,0V35.114H29.472V24.925H21.83V18.557H19.049a3.821,3.821,0,1,1,0-2.547h5.328v6.368h5.094V8.607C29.472,2.445,27.24,2,23.564,2ZM37.927,2c-3.676,0-5.908.445-5.908,6.607v7.4H42.442a3.821,3.821,0,1,1,0,2.547H32.019V45.3h5.328a3.821,3.821,0,1,1,0,2.547H32.019v6.793c0,4.912,2.52,5.943,4.634,5.943,2.273,0,6.287-1.11,7.778-5.134a8.792,8.792,0,0,0,7.04-4.1,6.609,6.609,0,0,0,.863-3.045,8.1,8.1,0,0,0-1.092-3.756,1.221,1.221,0,0,1-.119-.525V38.935H39.661v-6.6a3.821,3.821,0,1,1,2.547,0v4.055H53.671v7.084a8.747,8.747,0,0,0,3.821-7.084,8.343,8.343,0,0,0-2.065-5.627,19.937,19.937,0,0,0,2.065-8.383c0-6.815-3.993-12.715-9.229-13.863A11.022,11.022,0,0,0,37.927,2ZM15.462,16.01a1.274,1.274,0,1,0,1.274,1.274A1.274,1.274,0,0,0,15.462,16.01Zm30.567,0A1.274,1.274,0,1,0,47.3,17.283,1.274,1.274,0,0,0,46.029,16.01ZM40.935,27.472a1.274,1.274,0,1,0,1.274,1.274A1.274,1.274,0,0,0,40.935,27.472ZM15.462,28.746a1.274,1.274,0,1,0,1.274,1.274A1.274,1.274,0,0,0,15.462,28.746ZM20.557,45.3a1.274,1.274,0,1,0,1.274,1.274A1.274,1.274,0,0,0,20.557,45.3Zm20.378,0a1.274,1.274,0,1,0,1.274,1.274A1.274,1.274,0,0,0,40.935,45.3Z" transform="translate(-4 -2)"/></svg>