<svg xmlns="http://www.w3.org/2000/svg" xmlns:xlink="http://www.w3.org/1999/xlink" width="55.068" height="50.306" viewBox="0 0 62.068 59.306"><defs><style>.a{fill:url(#a);}</style><linearGradient id="a" x1="0.5" x2="0.5" y2="1" gradientUnits="objectBoundingBox"><stop offset="0" stop-color="#4a86ff"/><stop offset="1" stop-color="#1ec3ff"/></linearGradient></defs><path class="a" d="M33.705,4a2.758,2.758,0,1,0,2.758,2.758A2.758,2.758,0,0,0,33.705,4ZM25.43,6.758a2.758,2.758,0,1,0,2.758,2.758A2.758,2.758,0,0,0,25.43,6.758Zm16.551,0a2.758,2.758,0,1,0,2.758,2.758A2.758,2.758,0,0,0,41.98,6.758ZM3.424,9.517A1.379,1.379,0,0,0,2.045,10.9V61.927a1.378,1.378,0,0,0,1.379,1.379h8.213a1.378,1.378,0,0,0,1.379-1.379V57.79l3.356,0c3.393.149,6.315-3.457,6.848-6.788l1.148-7.931,3.572-1.789a3.255,3.255,0,0,0,1.573-1.98,3.318,3.318,0,0,0-.321-2.519L24.444,28.6C23.5,20.317,20.229,9.517,3.424,9.517Zm59.306,0c-16.8,0-20.083,10.8-21.02,19.08l-4.76,8.2a3.268,3.268,0,0,0,1.317,4.509l3.518,1.759,1.15,7.952c.53,3.31,3.492,6.925,6.791,6.769h3.413v4.138a1.378,1.378,0,0,0,1.379,1.379h8.213a1.378,1.378,0,0,0,1.379-1.379V10.9A1.382,1.382,0,0,0,62.731,9.517ZM8.879,19.171A2.758,2.758,0,1,1,6.121,21.93,2.758,2.758,0,0,1,8.879,19.171Zm8.275,0A2.758,2.758,0,1,1,14.4,21.93,2.758,2.758,0,0,1,17.154,19.171Zm37.239,0a2.758,2.758,0,1,1-2.758,2.758A2.758,2.758,0,0,1,54.393,19.171ZM8.879,27.447a2.758,2.758,0,1,1-2.758,2.758A2.758,2.758,0,0,1,8.879,27.447Zm8.275,0A2.758,2.758,0,1,1,14.4,30.205,2.758,2.758,0,0,1,17.154,27.447Zm37.239,0a2.758,2.758,0,1,1-2.758,2.758A2.758,2.758,0,0,1,54.393,27.447Z" transform="translate(-2.045 -4)"/></svg>