<svg xmlns="http://www.w3.org/2000/svg" width="20" height="20" viewBox="0 0 39 38"><defs><style>.a,.e{fill:none;}.a,.c{stroke:#fff;}.a{stroke-width:3px;opacity:0;}.b,.c{fill:#fff;}.c{stroke-width:1.3px;}.d{stroke:none;}</style></defs><g transform="translate(-37 -194)"><g class="a" transform="translate(38 194)"><rect class="d" width="38" height="38"/><rect class="e" x="1.5" y="1.5" width="35" height="35"/></g><path class="b" d="M24,19.5v-3H10.5V12L3,18l7.5,6V19.5Z" transform="translate(34 197.391)"/><path class="c" d="M30,4.5H16.5a3,3,0,0,0-3,3v6h3v-6H30v21H16.5v-6h-3v6a3,3,0,0,0,3,3H30a3,3,0,0,0,3-3V7.5A3,3,0,0,0,30,4.5Z" transform="translate(34 197.391)"/></g></svg>