<svg xmlns="http://www.w3.org/2000/svg" width="25.011" height="21.024" viewBox="0 0 25.011 21.024"><defs><style>.a{fill:none;stroke:#fff;stroke-linecap:round;stroke-linejoin:round;stroke-miterlimit:10;stroke-width:2.024px;}.b{fill:#fff;}</style></defs><g transform="translate(1.012 0.012)"><path class="a" d="M0,1H9.883" transform="translate(0 19)"/><path class="a" d="M0,1H9.883"/><path class="a" d="M0,1H22.791" transform="translate(0 9)"/><path class="b" d="M31.035,101.526l-4.283,4.283a.753.753,0,0,1-1.068,0l-.712-.712a.753.753,0,0,1,0-1.068l3.036-3.036-3.036-3.036a.753.753,0,0,1,0-1.068l.709-.718a.753.753,0,0,1,1.068,0l4.283,4.283A.754.754,0,0,1,31.035,101.526Z" transform="translate(-7.258 -90.991)"/></g></svg>