<svg xmlns="http://www.w3.org/2000/svg" width="20" height="20" viewBox="0 0 38 38"><defs><style>.a,.d{fill:none;}.a{stroke:#fff;stroke-width:3px;opacity:0;}.b{fill:#fff;}.c{stroke:none;}</style></defs><g transform="translate(-38 -194)"><g class="a" transform="translate(38 194)"><rect class="c" width="38" height="38"/><rect class="d" x="1.5" y="1.5" width="35" height="35"/></g><path class="b" d="M31.477,35.965H4.5a4.334,4.334,0,0,1-3.179-1.317A4.323,4.323,0,0,1,.008,31.469V8.991L1.694,3.512A4.708,4.708,0,0,1,3.749,1,6.107,6.107,0,0,1,7.1,0H19.887a6.107,6.107,0,0,1,3.354,1A4.708,4.708,0,0,1,25.3,3.512l1.686,5.479h4.5a4.5,4.5,0,0,1,4.5,4.5V31.469a4.5,4.5,0,0,1-4.5,4.5Zm0-21.354a1.141,1.141,0,0,0-1.124-1.124H5.627A1.141,1.141,0,0,0,4.5,14.611V30.346A1.141,1.141,0,0,0,5.627,31.47H30.353a1.141,1.141,0,0,0,1.124-1.124ZM22.486,24.726H20.238v2.248a2.247,2.247,0,0,1-4.494,0V24.726H13.5a2.248,2.248,0,1,1,0-4.5h2.248V17.982a2.278,2.278,0,0,1,2.247-2.247,2.188,2.188,0,0,1,1.58.65,2.144,2.144,0,0,1,.667,1.6v2.248h2.248a2.188,2.188,0,0,1,1.58.65,2.248,2.248,0,0,1,0,3.2,2.188,2.188,0,0,1-1.58.65Z" transform="translate(37.992 196)"/></g></svg>