<svg xmlns="http://www.w3.org/2000/svg" xmlns:xlink="http://www.w3.org/1999/xlink" width="50" height="50" viewBox="0 0 80 80"><defs><style>.a{fill:#0092e0;opacity:0.1;}.b{fill:#0084ff;}.c{fill:url(#a);}</style><linearGradient id="a" x1="0.81" y1="0.973" x2="0.107" gradientUnits="objectBoundingBox"><stop offset="0" stop-color="#0092e0"/><stop offset="1" stop-color="#1ec3ff"/></linearGradient></defs><circle class="a" cx="40" cy="40" r="40"/><path class="b" d="M6.436,13.849A26.931,26.931,0,0,0,18.151,25.564l3.911-3.911a1.768,1.768,0,0,1,1.813-.427,20.279,20.279,0,0,0,6.347,1.013A1.783,1.783,0,0,1,32,24.018v6.2A1.783,1.783,0,0,1,30.222,32,30.22,30.22,0,0,1,0,1.778,1.783,1.783,0,0,1,1.778,0H8A1.783,1.783,0,0,1,9.778,1.778a20.2,20.2,0,0,0,1.013,6.347,1.784,1.784,0,0,1-.444,1.813Z" transform="translate(24 22)"/><path class="c" d="M6.436,13.849A26.931,26.931,0,0,0,18.151,25.564l3.911-3.911a1.768,1.768,0,0,1,1.813-.427,20.279,20.279,0,0,0,6.347,1.013A1.783,1.783,0,0,1,32,24.018v6.2A1.783,1.783,0,0,1,30.222,32,30.22,30.22,0,0,1,0,1.778,1.783,1.783,0,0,1,1.778,0H8A1.783,1.783,0,0,1,9.778,1.778a20.2,20.2,0,0,0,1.013,6.347,1.784,1.784,0,0,1-.444,1.813Z" transform="translate(24 22)"/></svg>