<svg xmlns="http://www.w3.org/2000/svg" xmlns:xlink="http://www.w3.org/1999/xlink" width="50.844" height="50.844" viewBox="0 0 62.844 62.844"><defs><style>.a{fill:url(#a);}</style><linearGradient id="a" x1="0.5" x2="0.5" y2="1" gradientUnits="objectBoundingBox"><stop offset="0" stop-color="#4a86ff"/><stop offset="1" stop-color="#1ec3ff"/></linearGradient></defs><path class="a" d="M32.422,1a1.309,1.309,0,1,0,1.309,1.309A1.309,1.309,0,0,0,32.422,1ZM24.628,2.025a1.309,1.309,0,1,0,1.309,1.309A1.309,1.309,0,0,0,24.628,2.025Zm15.588,0a1.309,1.309,0,1,0,1.309,1.309A1.309,1.309,0,0,0,40.216,2.025ZM17.366,5.033a1.309,1.309,0,1,0,1.309,1.309A1.309,1.309,0,0,0,17.366,5.033Zm30.113,0a1.309,1.309,0,1,0,1.309,1.309A1.309,1.309,0,0,0,47.478,5.033Zm-15.056,1.2A26.185,26.185,0,1,0,58.607,32.422,26.2,26.2,0,0,0,32.422,6.237ZM11.129,9.819a1.309,1.309,0,1,0,1.309,1.309A1.309,1.309,0,0,0,11.129,9.819Zm42.586,0a1.309,1.309,0,1,0,1.309,1.309A1.309,1.309,0,0,0,53.715,9.819Zm-28.361.115a21.991,21.991,0,0,0-2.1,6.285c0,1.414,1.106,1.8,3.109,1.8a1.856,1.856,0,0,1,2.128,1.964v4.582a2.384,2.384,0,0,1-2.618,2.618c-3.771,0-3.928,2.514-3.928,3.928,0,.491-.085,1.309-1.146,1.309-1.964,0-.524-1.309-2.291-1.309h-.818c-.982,0-.982.761-.982,1.309,0,1.309,1.309,5.237,5.237,5.237h2.946a3.406,3.406,0,0,1,2.455.818c1.637,1.473,1.859,1.8,3.273,1.8a1.913,1.913,0,0,1,1.8,1.8,5.379,5.379,0,0,1-2.1,4.406,2.51,2.51,0,0,0-.811,1.118,47.129,47.129,0,0,0-2.363,7.776,23.37,23.37,0,0,1-5.2-1.862v-2.11c0-2.357-2.618-5.486-2.618-9.492,0-2.357-3.312-4.53-4.255-5.237a11.5,11.5,0,0,1-3.386-3.843,2.7,2.7,0,0,0-.557-.716l-.386-.343a2.622,2.622,0,0,0-1.739-.662H8.922A23.532,23.532,0,0,1,25.354,9.935Zm20.7,3.278A23.534,23.534,0,0,1,46.2,51.518c-.589-1.28-1.417-3.074-1.764-3.9-.44-1.041-.749-1.771-.985-2.3a2.545,2.545,0,0,0-1.478-1.371c-1.481-.521-4.319-1.928-4.319-4.981,0-1.3.491-3.928,5.237-3.928,3.535,0,6.546-2.749,6.546-3.928A9.346,9.346,0,0,0,48.22,26.54a1.282,1.282,0,0,0-1.516-.578,8.542,8.542,0,0,0-2.168,1.059c-2.129,1.473-1.914,4.091-5.567,4.091-.471,0-1.309-2.448-1.309-3.273,0-.655,1.008-.913,1.964-1.309.676-.28.655-.655.655-1.309,0-.453-.9-1.095-1.146-1.473a.94.94,0,0,1-.164-.491,1,1,0,0,1,.4-.793L42.078,20.8C43.1,20.163,45.175,15.34,46.054,13.213ZM6.342,16.056a1.309,1.309,0,1,0,1.309,1.309A1.309,1.309,0,0,0,6.342,16.056Zm52.16,0a1.309,1.309,0,1,0,1.309,1.309A1.309,1.309,0,0,0,58.5,16.056ZM3.335,23.319a1.309,1.309,0,1,0,1.309,1.309A1.309,1.309,0,0,0,3.335,23.319Zm58.174,0a1.309,1.309,0,1,0,1.309,1.309A1.309,1.309,0,0,0,61.509,23.319Zm-59.2,7.794a1.309,1.309,0,1,0,1.309,1.309A1.309,1.309,0,0,0,2.309,31.113Zm60.225,0a1.309,1.309,0,1,0,1.309,1.309A1.309,1.309,0,0,0,62.535,31.113Zm-59.2,7.794a1.309,1.309,0,1,0,1.309,1.309A1.309,1.309,0,0,0,3.335,38.907Zm58.174,0a1.309,1.309,0,1,0,1.309,1.309A1.309,1.309,0,0,0,61.509,38.907ZM6.342,46.169a1.309,1.309,0,1,0,1.309,1.309A1.309,1.309,0,0,0,6.342,46.169Zm52.16,0a1.309,1.309,0,1,0,1.309,1.309A1.309,1.309,0,0,0,58.5,46.169ZM11.129,52.406a1.309,1.309,0,1,0,1.309,1.309A1.309,1.309,0,0,0,11.129,52.406Zm42.586,0a1.309,1.309,0,1,0,1.309,1.309A1.309,1.309,0,0,0,53.715,52.406ZM17.366,57.193A1.309,1.309,0,1,0,18.675,58.5,1.309,1.309,0,0,0,17.366,57.193Zm30.113,0A1.309,1.309,0,1,0,48.787,58.5,1.309,1.309,0,0,0,47.478,57.193ZM24.628,60.2a1.309,1.309,0,1,0,1.309,1.309A1.309,1.309,0,0,0,24.628,60.2Zm15.588,0a1.309,1.309,0,1,0,1.309,1.309A1.309,1.309,0,0,0,40.216,60.2Zm-7.794,1.025a1.309,1.309,0,1,0,1.309,1.309A1.309,1.309,0,0,0,32.422,61.225Z" transform="translate(-1 -1)"/></svg>