<svg xmlns="http://www.w3.org/2000/svg" width="15.108" height="13.748" viewBox="0 0 23.108 21.748"><defs><style>.a{fill:#173049;}</style></defs><path class="a" d="M21.375,0a1.907,1.907,0,0,1,1.733,2.039V4.757a.635.635,0,0,1-.578.68H19.642v-3.4A1.907,1.907,0,0,1,21.375,0Zm-7.51,17.525V14.952H3.466V4.078C3.466,1.829,5.021,0,6.933,0H19.079a3.763,3.763,0,0,0-.593,2.039V17.67a2.462,2.462,0,0,1-2.7,2.681A2.755,2.755,0,0,1,13.865,17.525ZM12.71,16.311V17.67c0,2.248,1.555,4.078,3.466,4.078H4.044C1.81,21.748,0,19.618,0,16.991a.635.635,0,0,1,.578-.68Z"/></svg>