<svg xmlns="http://www.w3.org/2000/svg" width="20" height="20" viewBox="0 0 38 38"><defs><style>.a,.e{fill:none;}.a,.c{stroke:#fff;}.a{stroke-width:3px;opacity:0;}.b,.c,.f{fill:#fff;}.c{stroke-width:2px;}.d,.f{stroke:none;}</style></defs><g transform="translate(-38 -194)"><g class="a" transform="translate(38 194)"><rect class="d" width="38" height="38"/><rect class="e" x="1.5" y="1.5" width="35" height="35"/></g><g transform="translate(45 198.328)"><g class="b" transform="translate(-5.625 -2.25)"><path class="d" d="M23.625,18h2.25v2.25h-2.25Z"/><path class="f" d="M 23.625 18 L 25.875 18 L 25.875 20.25 L 23.625 20.25 L 23.625 18 Z"/></g><g class="b" transform="translate(-5.625 -2.25)"><path class="d" d="M 18.125 19.25 L 11.125 19.25 L 11.125 19 L 18.125 19 L 18.125 19.25 Z"/><path class="f" d="M 10.125 18 L 19.125 18 L 19.125 20.25 L 10.125 20.25 L 10.125 18 Z"/></g><g class="b" transform="translate(-5.625 -2.25)"><path class="d" d="M23.625,13.5h2.25v2.25h-2.25Z"/><path class="f" d="M 23.625 13.5 L 25.875 13.5 L 25.875 15.75 L 23.625 15.75 L 23.625 13.5 Z"/></g><g class="b" transform="translate(-5.625 -2.25)"><path class="d" d="M 18.125 14.75 L 11.125 14.75 L 11.125 14.5 L 18.125 14.5 L 18.125 14.75 Z"/><path class="f" d="M 10.125 13.5 L 19.125 13.5 L 19.125 15.75 L 10.125 15.75 L 10.125 13.5 Z"/></g><g class="b" transform="translate(-5.625 -2.25)"><path class="d" d="M 24.875 10.25 L 11.125 10.25 L 11.125 10 L 24.875 10 L 24.875 10.25 Z"/><path class="f" d="M 10.125 9 L 25.875 9 L 25.875 11.25 L 10.125 11.25 L 10.125 9 Z"/></g><path class="c" d="M28.125,2.25H7.875A2.252,2.252,0,0,0,5.625,4.5V32.625A1.125,1.125,0,0,0,6.75,33.75H7.875a1.124,1.124,0,0,0,.9-.45L11.25,30l2.475,3.3a1.164,1.164,0,0,0,1.8,0L18,30l2.475,3.3a1.164,1.164,0,0,0,1.8,0L24.75,30l2.475,3.3a1.125,1.125,0,0,0,.9.45H29.25a1.125,1.125,0,0,0,1.125-1.125V4.5a2.252,2.252,0,0,0-2.25-2.25Zm0,28.5-2.475-3.3a1.164,1.164,0,0,0-1.8,0l-2.475,3.3L18.9,27.45a1.164,1.164,0,0,0-1.8,0l-2.475,3.3-2.475-3.3a1.164,1.164,0,0,0-1.8,0l-2.475,3.3V4.5h20.25Z" transform="translate(-5.625 -2.25)"/></g></g></svg>