<svg xmlns="http://www.w3.org/2000/svg" xmlns:xlink="http://www.w3.org/1999/xlink" width="44.261" height="36.053" viewBox="0 0 61.261 57.053"><defs><style>.a{fill:url(#a);}.b{fill:url(#b);}.c,.d{stroke:none;}.d{fill:#fff;}</style><linearGradient id="a" x1="0.81" y1="0.973" x2="0.107" gradientUnits="objectBoundingBox"><stop offset="0" stop-color="#4a86ff"/><stop offset="1" stop-color="#1ec3ff"/></linearGradient><linearGradient id="b" x1="0.5" y1="0" x2="0.5" y2="1" xlink:href="#a"/></defs><g transform="translate(-129.471 9.053)"><path class="a" d="M35.455,48H16.546V45.6l4.727-7.2H4.728A4.77,4.77,0,0,1,0,33.6V4.8A4.77,4.77,0,0,1,4.728,0H47.273A4.77,4.77,0,0,1,52,4.8V33.6a4.77,4.77,0,0,1-4.728,4.8H30.727l4.728,7.2V48ZM4.728,4.8v24H47.273V4.8Z" transform="translate(129.471)"/><g class="b" transform="translate(161.11 -39.053)"><path class="c" d="M 14.79780578613281 58.95856094360352 L 12.82476615905762 58.95856094360352 C 11.18542575836182 58.95856094360352 9.851725578308105 57.67818069458008 9.851725578308105 56.1043815612793 L 9.851725578308105 48.76055145263672 L 1.973045945167542 48.76055145263672 C 0.3336959779262543 48.76055145263672 -1.000004053115845 47.48017120361328 -1.000004053115845 45.9063720703125 L -1.000004053115845 44.05219268798828 C -1.000004053115845 42.4783935546875 0.3336959779262543 41.19801330566406 1.973045945167542 41.19801330566406 L 9.851725578308105 41.19801330566406 L 9.851725578308105 33.85418319702148 C 9.851725578308105 32.2803840637207 11.18542575836182 31.00000190734863 12.82476615905762 31.00000190734863 L 14.79780578613281 31.00000190734863 C 16.4371452331543 31.00000190734863 17.77084541320801 32.2803840637207 17.77084541320801 33.85418319702148 L 17.77084541320801 41.19801330566406 L 25.6495361328125 41.19801330566406 C 27.28887557983398 41.19801330566406 28.6225757598877 42.4783935546875 28.6225757598877 44.05219268798828 L 28.6225757598877 45.9063720703125 C 28.6225757598877 47.48017120361328 27.28887557983398 48.76055145263672 25.6495361328125 48.76055145263672 L 17.77084541320801 48.76055145263672 L 17.77084541320801 56.1043815612793 C 17.77084541320801 57.67818069458008 16.4371452331543 58.95856094360352 14.79780578613281 58.95856094360352 Z"/><path class="d" d="M 12.82476615905762 32.00000381469727 C 11.735276222229 32.00000381469727 10.85172653198242 32.8303337097168 10.85172653198242 33.85418319702148 L 10.85172653198242 42.19801330566406 L 1.97303581237793 42.19801330566406 C 0.8835563659667969 42.19801330566406 -3.814697265625e-06 43.0283317565918 -3.814697265625e-06 44.05219268798828 L -3.814697265625e-06 45.9063720703125 C -3.814697265625e-06 46.93023300170898 0.8835563659667969 47.76055145263672 1.97303581237793 47.76055145263672 L 10.85172653198242 47.76055145263672 L 10.85172653198242 56.1043815612793 C 10.85172653198242 57.12824249267578 11.735276222229 57.95856094360352 12.82476615905762 57.95856094360352 L 14.79780578613281 57.95856094360352 C 15.88729572296143 57.95856094360352 16.77084732055664 57.12824249267578 16.77084732055664 56.1043815612793 L 16.77084732055664 47.76055145263672 L 25.6495361328125 47.76055145263672 C 26.7390251159668 47.76055145263672 27.6225757598877 46.93023300170898 27.6225757598877 45.9063720703125 L 27.6225757598877 44.05219268798828 C 27.6225757598877 43.0283317565918 26.7390251159668 42.19801330566406 25.6495361328125 42.19801330566406 L 16.77084732055664 42.19801330566406 L 16.77084732055664 33.85418319702148 C 16.77084732055664 32.8303337097168 15.88729572296143 32.00000381469727 14.79780578613281 32.00000381469727 L 12.82476615905762 32.00000381469727 M 12.82476615905762 30.00000381469727 L 14.79780578613281 30.00000381469727 C 16.98854637145996 30.00000381469727 18.77084732055664 31.72898101806641 18.77084732055664 33.85418319702148 L 18.77084732055664 40.19801330566406 L 25.6495361328125 40.19801330566406 C 27.84027671813965 40.19801330566406 29.6225757598877 41.9269905090332 29.6225757598877 44.05219268798828 L 29.6225757598877 45.9063720703125 C 29.6225757598877 48.03157424926758 27.84027671813965 49.76055145263672 25.6495361328125 49.76055145263672 L 18.77084732055664 49.76055145263672 L 18.77084732055664 56.1043815612793 C 18.77084732055664 58.22958374023438 16.98854637145996 59.95856475830078 14.79780578613281 59.95856475830078 L 12.82476615905762 59.95856475830078 C 10.63402557373047 59.95856475830078 8.851726531982422 58.22958374023438 8.851726531982422 56.1043815612793 L 8.851726531982422 49.76055145263672 L 1.97303581237793 49.76055145263672 C -0.2177047729492188 49.76055145263672 -2.000003814697266 48.03157424926758 -2.000003814697266 45.9063720703125 L -2.000003814697266 44.05219268798828 C -2.000003814697266 41.9269905090332 -0.2177047729492188 40.19801330566406 1.97303581237793 40.19801330566406 L 8.851726531982422 40.19801330566406 L 8.851726531982422 33.85418319702148 C 8.851726531982422 31.72898101806641 10.63402557373047 30.00000381469727 12.82476615905762 30.00000381469727 Z"/></g></g></svg>