<svg xmlns="http://www.w3.org/2000/svg" xmlns:xlink="http://www.w3.org/1999/xlink" width="44" height="36" viewBox="0 0 44 46"><defs><style>.a{fill:#0084ff;}.b{fill:url(#a);}</style><linearGradient id="a" x1="0.81" y1="0.973" x2="0.107" gradientUnits="objectBoundingBox"><stop offset="0" stop-color="#4a86ff"/><stop offset="1" stop-color="#1ec3ff"/></linearGradient></defs><g transform="translate(-134.5 0)"><path class="a" d="M22,46h0L0,29.115l3.96-3.039L21.975,39.9,40.016,26.051,44,29.115,22,46Zm0-12.229h0L3.984,19.948,0,16.885,22,0,44,16.885l-4.009,3.064L22,33.77Z" transform="translate(134.5)"/><path class="b" d="M22,46h0L0,29.115l3.96-3.039L21.975,39.9,40.016,26.051,44,29.115,22,46Zm0-12.229h0L3.984,19.948,0,16.885,22,0,44,16.885l-4.009,3.064L22,33.77Z" transform="translate(134.5)"/></g></svg>