<svg xmlns="http://www.w3.org/2000/svg" xmlns:xlink="http://www.w3.org/1999/xlink" width="44.623" height="36.279" viewBox="0 0 56.623 48.279"><defs><style>.a,.b{fill:url(#a);}.c,.d{stroke:none;}.d{fill:#fff;}</style><linearGradient id="a" x1="0.5" x2="0.5" y2="1" gradientUnits="objectBoundingBox"><stop offset="0" stop-color="#4a86ff"/><stop offset="1" stop-color="#1ec3ff"/></linearGradient></defs><path class="a" d="M1.147,38.885H30.982a1.147,1.147,0,0,0,1.147-1.147v-4.59A1.147,1.147,0,0,0,30.982,32H1.147A1.147,1.147,0,0,0,0,33.147v4.59A1.147,1.147,0,0,0,1.147,38.885Zm34.424,5.737H5.737A1.147,1.147,0,0,0,4.59,45.77v4.59a1.147,1.147,0,0,0,1.147,1.147H35.572a1.147,1.147,0,0,0,1.147-1.147V45.77A1.147,1.147,0,0,0,35.572,44.622Zm-4.59,12.622H1.147A1.147,1.147,0,0,0,0,58.392v4.59a1.147,1.147,0,0,0,1.147,1.147H30.982a1.147,1.147,0,0,0,1.147-1.147v-4.59A1.147,1.147,0,0,0,30.982,57.245Z" transform="translate(0 -32)"/><g class="b" transform="translate(20.869 7.704)"><path class="c" d="M 28.32898330688477 39.57569885253906 L 12.65761280059814 39.57569885253906 C 11.3779125213623 39.57569885253906 10.16446304321289 38.95782852172852 9.411643028259277 37.92290878295898 L -0.2321770042181015 24.66232872009277 C -1.533856987953186 22.87245941162109 -1.136736989021301 20.35727882385254 0.6530629992485046 19.05556869506836 C 1.343822956085205 18.55319976806641 2.159312963485718 18.28767013549805 3.011373043060303 18.28767013549805 C 4.292673110961914 18.28767013549805 5.507092952728271 18.90568923950195 6.259932994842529 19.94088935852051 L 6.835652828216553 20.73254203796387 L 6.835652828216553 3.013729333877563 C 6.835652828216553 0.8005494475364685 8.636202812194824 -1.000000596046448 10.84937286376953 -1.000000596046448 C 13.06255340576172 -1.000000596046448 14.86310291290283 0.8005494475364685 14.86310291290283 3.013729333877563 L 14.86310291290283 12.02728366851807 C 15.56621265411377 11.42157745361328 16.48091697692871 11.05490970611572 17.47957229614258 11.05490970611572 C 19.14702224731445 11.05490970611572 20.5802001953125 12.07685661315918 21.18562889099121 13.52740573883057 C 21.91825294494629 12.747971534729 22.95820045471191 12.26039981842041 24.10977363586426 12.26039981842041 C 25.9433650970459 12.26039981842041 27.49371528625488 13.49622249603271 27.97158432006836 15.17872905731201 C 28.69229507446289 14.49126434326172 29.66768836975098 14.06862926483154 30.73996353149414 14.06862926483154 C 32.95314407348633 14.06862926483154 34.75369262695313 15.86917972564697 34.75369262695313 18.08235931396484 L 34.75369262695313 25.31529998779297 C 34.75369262695313 25.62467956542969 34.71779251098633 25.93404006958008 34.64699172973633 26.23476982116699 L 32.23604202270508 36.48130035400391 C 31.80739212036133 38.30323028564453 30.20074272155762 39.57569885253906 28.32898330688477 39.57569885253906 Z"/><path class="d" d="M 10.84937286376953 0 C 9.184892654418945 0 7.835653305053711 1.349319458007813 7.835653305053711 3.013729095458984 L 7.835653305053711 23.80783843994141 L 5.451192855834961 20.52904891967773 C 4.86140251159668 19.71806526184082 3.942901611328125 19.28763008117676 3.011371612548828 19.28766632080078 C 2.396738052368164 19.28769111633301 1.7763671875 19.47512054443359 1.241241455078125 19.86429977416992 C -0.104766845703125 20.84323883056641 -0.4023666381835938 22.72808837890625 0.5765647888183594 24.07416915893555 L 10.22032356262207 37.33465957641602 C 10.78751373291016 38.11438751220703 11.69351387023926 38.57569885253906 12.65761375427246 38.57569885253906 L 28.32898330688477 38.57569885253906 C 29.72750282287598 38.57569885253906 30.94234275817871 37.61357116699219 31.26262283325195 36.25225830078125 L 33.67360305786133 26.00558853149414 C 33.72687149047852 25.77933883666992 33.75369262695313 25.54766082763672 33.75369262695313 25.31529998779297 L 33.75369262695313 18.08235931396484 C 33.75369262695313 16.41794967651367 32.40445327758789 15.06863021850586 30.73996353149414 15.06863021850586 C 29.07548332214355 15.06863021850586 27.72624206542969 16.41794967651367 27.72624206542969 18.08235931396484 L 27.12349319458008 18.08235931396484 L 27.12349319458008 16.27412033081055 C 27.12349319458008 14.60970878601074 25.77425384521484 13.26039886474609 24.10977172851563 13.26039886474609 C 22.44529342651367 13.26039886474609 21.09604263305664 14.60970878601074 21.09604263305664 16.27412033081055 L 21.09604263305664 18.08235931396484 L 20.4933032989502 18.08235931396484 L 20.4933032989502 15.06863021850586 C 20.4933032989502 13.40421867370605 19.1440544128418 12.05490875244141 17.47957229614258 12.05490875244141 C 15.81509208679199 12.05490875244141 14.46585273742676 13.40421867370605 14.46585273742676 15.06863021850586 L 14.46585273742676 18.08235931396484 L 13.86310386657715 18.08235931396484 L 13.86310386657715 3.013729095458984 C 13.86310386657715 1.349319458007813 12.51386260986328 0 10.84937286376953 0 M 14.46585273742676 31.34275054931641 L 13.86310386657715 31.34275054931641 L 13.86310386657715 24.10980987548828 L 14.46585273742676 24.10980987548828 L 14.46585273742676 31.34275054931641 M 21.09604263305664 31.34275054931641 L 20.4933032989502 31.34275054931641 L 20.4933032989502 24.10980987548828 L 21.09604263305664 24.10980987548828 L 21.09604263305664 31.34275054931641 M 27.72624206542969 31.34275054931641 L 27.12349319458008 31.34275054931641 L 27.12349319458008 24.10980987548828 L 27.72624206542969 24.10980987548828 L 27.72624206542969 31.34275054931641 M 10.84937286376953 -2 C 13.61395263671875 -2 15.86310386657715 0.2491493225097656 15.86310386657715 3.013729095458984 L 15.86310386657715 10.32222747802734 C 16.37045097351074 10.14898681640625 16.914306640625 10.05490875244141 17.47957229614258 10.05490875244141 C 19.09843063354492 10.05490875244141 20.54066467285156 10.82627487182617 21.45793533325195 12.02059936523438 C 22.22762680053711 11.53903770446777 23.13683700561523 11.26039886474609 24.10977172851563 11.26039886474609 C 25.91592216491699 11.26039886474609 27.50211906433105 12.22046852111816 28.38481903076172 13.65700531005859 C 29.08743286132813 13.28152847290039 29.88919639587402 13.06863021850586 30.73996353149414 13.06863021850586 C 33.50454330444336 13.06863021850586 35.75369262695313 15.31777954101563 35.75369262695313 18.08235931396484 L 35.75369262695313 25.31529998779297 C 35.75369262695313 25.70174980163574 35.70883178710938 26.08821868896484 35.6203727722168 26.46394920349121 L 33.20945358276367 36.7103385925293 C 32.95176315307617 37.80564880371094 32.32401275634766 38.79365921020508 31.44186210632324 39.4923095703125 C 30.55974197387695 40.19094848632813 29.45423316955566 40.57569885253906 28.32898330688477 40.57569885253906 L 12.65761375427246 40.57569885253906 C 11.0590934753418 40.57569885253906 9.543333053588867 39.80390930175781 8.602962493896484 38.51115798950195 L -1.040927886962891 25.25048828125 C -2.666908264160156 23.01467895507813 -2.17083740234375 19.87285995483398 0.06488418579101563 18.24683952331543 C 0.927642822265625 17.6193790435791 1.946493148803711 17.28769874572754 3.011302947998047 17.28767013549805 C 4.028682708740234 17.28762435913086 5.01237678527832 17.59968948364258 5.835653305053711 18.15935707092285 L 5.835653305053711 3.013729095458984 C 5.835653305053711 0.2491493225097656 8.084802627563477 -2 10.84937286376953 -2 Z"/></g></svg>