<svg xmlns="http://www.w3.org/2000/svg" xmlns:xlink="http://www.w3.org/1999/xlink" width="61.729" height="61.729" viewBox="0 0 61.729 61.729"><defs><style>.a{fill:url(#a);}</style><linearGradient id="a" x1="0.5" x2="0.5" y2="1" gradientUnits="objectBoundingBox"><stop offset="0" stop-color="#4a86ff"/><stop offset="1" stop-color="#1ec3ff"/></linearGradient></defs><path class="a" d="M63.729,32.864a11.783,11.783,0,0,0-6.275-10.386A11.575,11.575,0,0,0,46.245,7.888a11.78,11.78,0,0,0-3,.386,11.732,11.732,0,0,0-20.772,0,11.788,11.788,0,0,0-3-.386A11.575,11.575,0,0,0,8.273,22.478a11.734,11.734,0,0,0,0,20.773A11.575,11.575,0,0,0,19.484,57.84a11.781,11.781,0,0,0,3-.386,11.732,11.732,0,0,0,20.772,0,11.788,11.788,0,0,0,3,.386A11.575,11.575,0,0,0,57.455,43.251,11.785,11.785,0,0,0,63.729,32.864ZM28.455,43.579l-9.767-9.767,1.9-1.9,7.869,7.869L45.143,23.1l1.9,1.9Z" transform="translate(-2 -2)"/></svg>